<?xml version='1.0' encoding='UTF-8' standalone='no'?>
<svg xmlns:svg="http://www.w3.org/2000/svg" xmlns:xlink="http://www.w3.org/1999/xlink" xmlns:inkscape="http://www.inkscape.org/namespaces/inkscape" height="210mm" viewBox="0 0 2970 2100" xmlns="http://www.w3.org/2000/svg" xmlns:rdf="http://www.w3.org/1999/02/22-rdf-syntax-ns#" xmlns:cc="http://creativecommons.org/ns#" width="297mm" xmlns:freecad="https://www.freecad.org/wiki/index.php?title=Svg_Namespace" version="1.2" xmlns:dc="http://purl.org/dc/elements/1.1/" xmlns:sodipodi="http://sodipodi.sourceforge.net/DTD/sodipodi-0.dtd" baseProfile="tiny">
 <title>FreeCAD SVG Export</title>
 <desc>Drawing page: Page exported from FreeCAD document: reto4_L7</desc>
 <defs/>
 <g id="Page" inkscape:label="TechDraw" inkscape:groupmode="layer">
  <g id="A4_Landscape_ISO5457_minimal.svg" transform="scale(10.000000, 10.000000)" style="stroke: none;">
   <title id="title">Drawing sheet ISO 5457 - A4T - Minimal</title>
   <metadata id="metadata">
    <rdf:RDF>
     <cc:Work rdf:about="">
      <cc:license rdf:resource="http://creativecommons.org/publicdomain/zero/1.0/"/>
      <dc:title>Drawing sheet ISO 5457 - A4T - Minimal</dc:title>
      <dc:creator>
       <cc:Agent>
        <dc:title>Benjamin May</dc:title>
       </cc:Agent>
      </dc:creator>
     </cc:Work>
     <cc:License rdf:about="http://creativecommons.org/publicdomain/zero/1.0/">
      <cc:permits rdf:resource="http://creativecommons.org/ns#Reproduction"/>
      <cc:permits rdf:resource="http://creativecommons.org/ns#Distribution"/>
      <cc:permits rdf:resource="http://creativecommons.org/ns#DerivativeWorks"/>
     </cc:License>
    </rdf:RDF>
   </metadata>
   <rect id="drawing_space_frame" x="20" height="190" y="10" width="267" style="fill:none;stroke:#000000;stroke-width:0.7;stroke-linecap:round;stroke-linejoin:round"/>
   <g id="centring_marks" style="fill:none;stroke:#000000;stroke-width:0.7;stroke-linecap:round">
    <path id="top_centering" d="m 148.5,5 v 10"/>
    <path id="right_centering" d="m 292,105 h -10"/>
    <path id="bottom_centering" d="m 148.5,205 v -6"/>
    <path id="left_centering" d="m 15,105 h 10"/>
   </g>
   <g id="grid_reference_system">
    <g id="grid_reference_borders" style="fill:none;stroke:#000000;stroke-width:0.35;stroke-linecap:round;stroke-linejoin:round">
     <rect id="grid_reference_border" x="15" height="200" y="5" width="277"/>
     <path id="upper_border_1" d="m 48.5,5 v 5"/>
     <path id="upper_border_2" d="m 98.5,5 v 5"/>
     <path id="upper_border_4" d="m 198.5,5 v 5"/>
     <path id="upper_border_5" d="m 248.5,5 v 5"/>
     <path id="right_border_1" d="m 292,55 h -5"/>
     <path id="right_border_3" d="m 292,155 h -5"/>
     <path id="lower_border_1" d="m 48.5,205 v -5"/>
     <path id="lower_border_2" d="m 98.5,205 v -5"/>
     <path id="lower_border_4" d="m 198.5,205 v -5"/>
     <path id="lower_border_5" d="m 248.5,205 v -5"/>
     <path id="left_border_1" d="m 15,55 h 5"/>
     <path id="left_border_3" d="m 15,155 h 5"/>
    </g>
    <g id="grid_reference_markers" style="font-size:3.5px;font-family:osifont;text-align:center;text-anchor:middle;fill:#000000;stroke:none">
     <text id="upper_marker_1" x="23.5" y="8.8">1</text>
     <text id="upper_marker_2" x="73.5" y="8.8">2</text>
     <text id="upper_marker_3" x="123.5" y="8.8">3</text>
     <text id="upper_marker_4" x="173.5" y="8.8">4</text>
     <text id="upper_marker_5" x="223.5" y="8.8">5</text>
     <text id="upper_marker_6" x="273.5" y="8.8">6</text>
     <text id="right_marker_1" x="289.5" y="31.3">A</text>
     <text id="right_marker_2" x="289.5" y="81.3">B</text>
     <text id="right_marker_3" x="289.5" y="131.3">C</text>
     <text id="right_marker_4" x="289.5" y="181.3">D</text>
     <text id="lower_marker_6" x="273.5" y="203.8">A4</text>
    </g>
   </g>
   <g id="trimming_marks" style="fill:#000000;stroke:none">
    <path id="top_left_trimming" d="m 0,0 h 10 v 5 h -5 v 5 h -5 z"/>
    <path id="top_right_trimming" d="m 297,0 h -10 v 5 h 5 v 5 h 5 z"/>
    <path id="bottom_right_trimming" d="m 297,210 h -10 v -5 h 5 v -5 h 5 z"/>
    <path id="bottom_left_trimming" d="m 0,210 h 10 v -5 h -5 v -5 h -5 z"/>
   </g>
   <!-- Title block -->
   <g id="title_block_borders" style="fill:none;stroke:#000000;stroke-width:0.35;stroke-linecap:round;stroke-linejoin:round">
    <rect id="title_block_frame" x="107" height="36" y="164" width="180" style="stroke-width:0.7"/>
    <rect id="legal_owner_border" x="247" height="24" y="164" width="40"/>
    <rect id="identification_number_border" x="107" height="12" y="188" width="80"/>
    <rect id="revision_index_border" x="247" height="12" y="188" width="20"/>
    <rect id="date_of_issue_border" x="207" height="12" y="188" width="40"/>
    <rect id="sheet_number_border" x="267" height="12" y="188" width="20"/>
    <rect id="language_code_border" x="187" height="12" y="188" width="20"/>
    <rect id="title_border" x="107" height="12" y="164" width="80"/>
    <rect id="approval_person_border" x="187" height="12" y="176" width="60"/>
    <rect id="creator_border" x="187" height="12" y="164" width="60"/>
    <rect id="document_type_border" x="107" height="12" y="176" width="80"/>
   </g>
   <g id="title_block_labels" style="font-size:3.5px;font-family:osifont;text-anchor:start;fill:#000000;stroke:none">
    <text id="legal_owner label" x="247.5" y="167.6">Owner:</text>
    <text id="identification_number_label" x="107.5" y="191.6">Drawing number:</text>
    <text id="revision_index_label" x="247.5" y="191.6">Revision:</text>
    <text id="date_of_issue_label" x="207.5" y="191.6">Issue date:</text>
    <text id="sheet_number_label" x="267.5" y="191.6">Sheet:</text>
    <text id="language_code_label" x="187.5" y="191.6">Language:</text>
    <text id="title_label" x="107.5" y="167.6">Title:</text>
    <text id="approval_person_label" x="187.5" y="179.6">Approved by:</text>
    <text id="creator_label" x="187.5" y="167.6">Created by:</text>
    <text id="document_type_label" x="107.5" y="179.6">Document type:</text>
    <text id="sheet_scale_label" x="227.5" y="155.6">Scale:</text>
    <text id="general_tolerances_label" x="187.5" y="155.6">General tolerances:</text>
    <text id="part_material_label" x="107.5" y="155.6">Part Material:</text>
   </g>
   <g id="title_block_data_fields" style="font-size:5px;font-family:osifont;text-anchor:start;fill:#000000;stroke:none">
    <text id="legal_owner_1_data_field" x="267" freecad:autofill="organization" freecad:editable="legal_owner_1" y="173.1" style="font-size:3.5px;text-align:center;text-anchor:middle">
     <tspan xml:space="preserve"/>
    </text>
    <text id="legal_owner_2_data_field" x="267" freecad:editable="legal_owner_2" y="177.1" style="font-size:3.5px;text-align:center;text-anchor:middle">
     <tspan xml:space="preserve"/>
    </text>
    <text id="legal_owner_3_data_field" x="267" freecad:editable="legal_owner_3" y="181.1" style="font-size:3.5px;text-align:center;text-anchor:middle">
     <tspan xml:space="preserve"/>
    </text>
    <text id="legal_owner_4_data_field" x="267" freecad:editable="legal_owner_4" y="185.1" style="font-size:3.5px;text-align:center;text-anchor:middle">
     <tspan xml:space="preserve"/>
    </text>
    <text id="identification_number_data_field" x="108" freecad:editable="identification_number" y="197.2">
     <tspan xml:space="preserve">DN</tspan>
    </text>
    <text id="revision_index_data_field" x="257" freecad:editable="revision_index" y="197.2" style="text-align:center;text-anchor:middle">
     <tspan xml:space="preserve">AAA</tspan>
    </text>
    <text id="date_of_issue_data_field" x="208" freecad:autofill="date" freecad:editable="date_of_issue" y="197.2">
     <tspan xml:space="preserve">12/12/24</tspan>
    </text>
    <text id="sheet_number_data_field" x="277" freecad:autofill="sheet" freecad:editable="sheet_number" y="197.2" style="text-align:center;text-anchor:middle">
     <tspan xml:space="preserve">1 / 1</tspan>
    </text>
    <text id="language_code_data_field" x="197" freecad:editable="language_code" y="197.2" style="text-align:center;text-anchor:middle">
     <tspan xml:space="preserve">EN</tspan>
    </text>
    <text id="title_data_field" x="108" freecad:autofill="title" freecad:editable="title" y="173.2">
     <tspan xml:space="preserve">reto4_L7</tspan>
    </text>
    <text id="approval_person_data_field" x="188" freecad:editable="approval_person" y="185.2">
     <tspan xml:space="preserve">B. Hecate</tspan>
    </text>
    <text id="creator_data_field" x="188" freecad:autofill="author" freecad:editable="creator" y="173.2">
     <tspan xml:space="preserve">A. Nemesis</tspan>
    </text>
    <text id="document_type_data_field" x="108" freecad:editable="document_type" y="185.2">
     <tspan xml:space="preserve">Assembly Drawing</tspan>
    </text>
    <text id="sheet_scale_data_field" x="237" freecad:autofill="scale" freecad:editable="sheet_scale" y="161.2" style="text-align:center;text-anchor:middle">
     <tspan xml:space="preserve">1 : 1</tspan>
    </text>
    <text id="general_tolerances_data_field" x="188" freecad:editable="general_tolerances" y="161.2">
     <tspan xml:space="preserve">ISO 2768-m</tspan>
    </text>
    <text id="part_material_data_field" x="108" freecad:editable="part_material" y="161.2">
     <tspan xml:space="preserve">Stainless steel Mat.No. 1.4301</tspan>
    </text>
   </g>
   <g id="extras_outlines" style="fill:none;stroke:#000000;stroke-width:0.5;stroke-linecap:round;stroke-linejoin:round">
    <path id="first_angle_trapezoid" d="m 266,147 -10,2.5 v 5 l 10,2.5 z"/>
    <circle id="first_angle_inner circle" cy="152" cx="273" r="2.5"/>
    <circle id="first_angle_outer circle" cy="152" cx="273" r="5"/>
   </g>
   <g id="extras_centre_lines" style="fill:none;stroke:#000000;stroke-width:0.25;stroke-linecap:round;stroke-linejoin:round;stroke-dasharray:6, 0.75, 0.125, 0.75">
    <path id="first_angle_horizontal" d="m 255,152 h 24" style="stroke-dashoffset:0.25"/>
    <path id="first_angle_vertical" d="m 273,158 v -12" style="stroke-dashoffset:4.625"/>
   </g>
  </g>
  <g fill="none" id="DrawingContent" fill-rule="evenodd" stroke-linejoin="bevel" stroke="black" stroke-linecap="square" stroke-width="1">
   <g font-family="Sans Serif" fill="#f1f3f5" font-style="normal" transform="matrix(1,0,0,1,1509.28,895.194)" font-weight="400" stroke="none" font-size="31.75" fill-opacity="0">
    <path fill-rule="evenodd" d="M600,-110 L600,110 L-600,110 L-600,-110 L260,-110 L260,50 L500,50 L480,-110 L600,-110" vector-effect="non-scaling-stroke"/>
   </g>
   <g font-family="Sans Serif" fill="none" font-style="normal" transform="matrix(1,0,0,1,1509.28,895.194)" font-weight="400" stroke-opacity="1" stroke-linejoin="bevel" stroke="#000000" stroke-linecap="round" stroke-width="7" font-size="31.75">
    <path fill-rule="evenodd" d="M-600,110 L-600,-110" vector-effect="none"/>
   </g>
   <g font-family="Sans Serif" fill="none" font-style="normal" transform="matrix(1,0,0,1,1509.28,895.194)" font-weight="400" stroke-opacity="1" stroke-linejoin="bevel" stroke="#000000" stroke-linecap="round" stroke-width="7" font-size="31.75">
    <path fill-rule="evenodd" d="M-600,-110 L260,-110" vector-effect="none"/>
   </g>
   <g font-family="Sans Serif" fill="none" font-style="normal" transform="matrix(1,0,0,1,1509.28,895.194)" font-weight="400" stroke-opacity="1" stroke-linejoin="bevel" stroke="#000000" stroke-linecap="round" stroke-width="7" font-size="31.75">
    <path fill-rule="evenodd" d="M260,-110 L260,50" vector-effect="none"/>
   </g>
   <g font-family="Sans Serif" fill="none" font-style="normal" transform="matrix(1,0,0,1,1509.28,895.194)" font-weight="400" stroke-opacity="1" stroke-linejoin="bevel" stroke="#000000" stroke-linecap="round" stroke-width="7" font-size="31.75">
    <path fill-rule="evenodd" d="M260,50 L500,50" vector-effect="none"/>
   </g>
   <g font-family="Sans Serif" fill="none" font-style="normal" transform="matrix(1,0,0,1,1509.28,895.194)" font-weight="400" stroke-opacity="1" stroke-linejoin="bevel" stroke="#000000" stroke-linecap="round" stroke-width="7" font-size="31.75">
    <path fill-rule="evenodd" d="M500,50 L480,-110" vector-effect="none"/>
   </g>
   <g font-family="Sans Serif" fill="none" font-style="normal" transform="matrix(1,0,0,1,1509.28,895.194)" font-weight="400" stroke-opacity="1" stroke-linejoin="bevel" stroke="#000000" stroke-linecap="round" stroke-width="7" font-size="31.75">
    <path fill-rule="evenodd" d="M480,-110 L600,-110" vector-effect="none"/>
   </g>
   <g font-family="Sans Serif" fill="none" font-style="normal" transform="matrix(1,0,0,1,1509.28,895.194)" font-weight="400" stroke-opacity="1" stroke-linejoin="bevel" stroke="#000000" stroke-linecap="round" stroke-width="7" font-size="31.75">
    <path fill-rule="evenodd" d="M600,-110 L600,110" vector-effect="none"/>
   </g>
   <g font-family="Sans Serif" fill="none" font-style="normal" transform="matrix(1,0,0,1,1509.28,895.194)" font-weight="400" stroke-opacity="1" stroke-linejoin="bevel" stroke="#000000" stroke-linecap="round" stroke-width="7" font-size="31.75">
    <path fill-rule="evenodd" d="M600,110 L-600,110" vector-effect="none"/>
   </g>
   <g font-family="Sans Serif" fill="none" font-style="normal" transform="matrix(1,0,0,1,1538.95,1146.88)" font-weight="400" stroke-opacity="1" stroke-linejoin="bevel" stroke="#000000" stroke-linecap="square" stroke-width="1" font-size="31.75">
    <text xml:space="preserve" font-family="osifont" fill="#000000" font-style="normal" x="4" font-weight="400" y="93" stroke="none" font-size="67" fill-opacity="1">60</text>
   </g>
   <g font-family="Sans Serif" fill="none" font-style="normal" transform="matrix(1,0,0,1,1509.28,895.194)" font-weight="400" stroke-opacity="1" stroke-linejoin="bevel" stroke="#000000" stroke-linecap="round" stroke-width="3.5" font-size="31.75">
    <path fill-rule="evenodd" d="M600,361.939 L-600,361.939 M-600,110 L-600,389.939 M600,110 L600,389.939" vector-effect="none"/>
   </g>
   <g font-family="Sans Serif" fill="#000000" font-style="normal" transform="matrix(1,0,0,1,909.283,1257.13)" font-weight="400" stroke-opacity="1" stroke-linejoin="bevel" stroke="#000000" stroke-linecap="round" stroke-width="3.5" font-size="31.75" fill-opacity="1">
    <path fill-rule="evenodd" d="M0,0 L35,5.83333 L35,-5.83333 L0,0" vector-effect="none"/>
   </g>
   <g font-family="Sans Serif" fill="#000000" font-style="normal" transform="matrix(1,0,0,1,2109.28,1257.13)" font-weight="400" stroke-opacity="1" stroke-linejoin="bevel" stroke="#000000" stroke-linecap="round" stroke-width="3.5" font-size="31.75" fill-opacity="1">
    <path fill-rule="evenodd" d="M0,0 L-35,-5.83333 L-35,5.83333 L0,0" vector-effect="none"/>
   </g>
   <g font-family="Sans Serif" fill="none" font-style="normal" transform="matrix(0,-1,1,0,515.213,992.027)" font-weight="400" stroke-opacity="1" stroke-linejoin="bevel" stroke="#000000" stroke-linecap="square" stroke-width="1" font-size="31.75">
    <text xml:space="preserve" font-family="osifont" fill="#000000" font-style="normal" x="4" font-weight="400" y="93" stroke="none" font-size="67" fill-opacity="1">11</text>
   </g>
   <g font-family="Sans Serif" fill="none" font-style="normal" transform="matrix(1,0,0,1,1509.28,895.194)" font-weight="400" stroke-opacity="1" stroke-linejoin="bevel" stroke="#000000" stroke-linecap="round" stroke-width="3.5" font-size="31.75">
    <path fill-rule="evenodd" d="M-883.82,110 L-883.82,-110 M-600,-110 L-911.82,-110 M-600,110 L-911.82,110" vector-effect="none"/>
   </g>
   <g font-family="Sans Serif" fill="#000000" font-style="normal" transform="matrix(1,0,0,1,625.463,785.194)" font-weight="400" stroke-opacity="1" stroke-linejoin="bevel" stroke="#000000" stroke-linecap="round" stroke-width="3.5" font-size="31.75" fill-opacity="1">
    <path fill-rule="evenodd" d="M0,0 L-5.83333,35 L5.83333,35 L0,0" vector-effect="none"/>
   </g>
   <g font-family="Sans Serif" fill="#000000" font-style="normal" transform="matrix(1,0,0,1,625.463,1005.19)" font-weight="400" stroke-opacity="1" stroke-linejoin="bevel" stroke="#000000" stroke-linecap="round" stroke-width="3.5" font-size="31.75" fill-opacity="1">
    <path fill-rule="evenodd" d="M0,0 L5.83333,-35 L-5.83333,-35 L0,0" vector-effect="none"/>
   </g>
   <g font-family="Sans Serif" fill="none" font-style="normal" transform="matrix(0,-1,1,0,1567.77,1052.01)" font-weight="400" stroke-opacity="1" stroke-linejoin="bevel" stroke="#000000" stroke-linecap="square" stroke-width="1" font-size="31.75">
    <text xml:space="preserve" font-family="osifont" fill="#000000" font-style="normal" x="4" font-weight="400" y="93" stroke="none" font-size="67" fill-opacity="1">3</text>
   </g>
   <g font-family="Sans Serif" fill="none" font-style="normal" transform="matrix(1,0,0,1,1509.28,895.194)" font-weight="400" stroke-opacity="1" stroke-linejoin="bevel" stroke="#000000" stroke-linecap="round" stroke-width="3.5" font-size="31.75">
    <path fill-rule="evenodd" d="M168.74,180 L168.74,-20 M260,50 L140.74,50 M260,110 L140.74,110" vector-effect="none"/>
   </g>
   <g font-family="Sans Serif" fill="#000000" font-style="normal" transform="matrix(1,0,0,1,1678.02,945.194)" font-weight="400" stroke-opacity="1" stroke-linejoin="bevel" stroke="#000000" stroke-linecap="round" stroke-width="3.5" font-size="31.75" fill-opacity="1">
    <path fill-rule="evenodd" d="M0,0 L5.83333,-35 L-5.83333,-35 L0,0" vector-effect="none"/>
   </g>
   <g font-family="Sans Serif" fill="#000000" font-style="normal" transform="matrix(1,0,0,1,1678.02,1005.19)" font-weight="400" stroke-opacity="1" stroke-linejoin="bevel" stroke="#000000" stroke-linecap="round" stroke-width="3.5" font-size="31.75" fill-opacity="1">
    <path fill-rule="evenodd" d="M0,0 L-5.83333,35 L5.83333,35 L0,0" vector-effect="none"/>
   </g>
   <g font-family="Sans Serif" fill="none" font-style="normal" transform="matrix(1,0,0,1,1858.22,1052.79)" font-weight="400" stroke-opacity="1" stroke-linejoin="bevel" stroke="#000000" stroke-linecap="square" stroke-width="1" font-size="31.75">
    <text xml:space="preserve" font-family="osifont" fill="#000000" font-style="normal" x="4" font-weight="400" y="93" stroke="none" font-size="67" fill-opacity="1">12</text>
   </g>
   <g font-family="Sans Serif" fill="none" font-style="normal" transform="matrix(1,0,0,1,1509.28,895.194)" font-weight="400" stroke-opacity="1" stroke-linejoin="bevel" stroke="#000000" stroke-linecap="round" stroke-width="3.5" font-size="31.75">
    <path fill-rule="evenodd" d="M260,267.841 L500,267.841 M500,50 L500,295.841 M260,50 L260,295.841" vector-effect="none"/>
   </g>
   <g font-family="Sans Serif" fill="#000000" font-style="normal" transform="matrix(1,0,0,1,2009.28,1163.04)" font-weight="400" stroke-opacity="1" stroke-linejoin="bevel" stroke="#000000" stroke-linecap="round" stroke-width="3.5" font-size="31.75" fill-opacity="1">
    <path fill-rule="evenodd" d="M0,0 L-35,-5.83333 L-35,5.83333 L0,0" vector-effect="none"/>
   </g>
   <g font-family="Sans Serif" fill="#000000" font-style="normal" transform="matrix(1,0,0,1,1769.28,1163.04)" font-weight="400" stroke-opacity="1" stroke-linejoin="bevel" stroke="#000000" stroke-linecap="round" stroke-width="3.5" font-size="31.75" fill-opacity="1">
    <path fill-rule="evenodd" d="M0,0 L35,5.83333 L35,-5.83333 L0,0" vector-effect="none"/>
   </g>
   <g font-family="Sans Serif" fill="none" font-style="normal" transform="matrix(1,0,0,1,1900.16,491.236)" font-weight="400" stroke-opacity="1" stroke-linejoin="bevel" stroke="#000000" stroke-linecap="square" stroke-width="1" font-size="31.75">
    <text xml:space="preserve" font-family="osifont" fill="#000000" font-style="normal" x="4" font-weight="400" y="93" stroke="none" font-size="67" fill-opacity="1">11</text>
   </g>
   <g font-family="Sans Serif" fill="none" font-style="normal" transform="matrix(1,0,0,1,1509.28,895.194)" font-weight="400" stroke-opacity="1" stroke-linejoin="bevel" stroke="#000000" stroke-linecap="round" stroke-width="3.5" font-size="31.75">
    <path fill-rule="evenodd" d="M260,-293.709 L480,-293.709 M480,-110 L480,-321.709 M260,-110 L260,-321.709" vector-effect="none"/>
   </g>
   <g font-family="Sans Serif" fill="#000000" font-style="normal" transform="matrix(1,0,0,1,1989.28,601.486)" font-weight="400" stroke-opacity="1" stroke-linejoin="bevel" stroke="#000000" stroke-linecap="round" stroke-width="3.5" font-size="31.75" fill-opacity="1">
    <path fill-rule="evenodd" d="M0,0 L-35,-5.83333 L-35,5.83333 L0,0" vector-effect="none"/>
   </g>
   <g font-family="Sans Serif" fill="#000000" font-style="normal" transform="matrix(1,0,0,1,1769.28,601.486)" font-weight="400" stroke-opacity="1" stroke-linejoin="bevel" stroke="#000000" stroke-linecap="round" stroke-width="3.5" font-size="31.75" fill-opacity="1">
    <path fill-rule="evenodd" d="M0,0 L35,5.83333 L35,-5.83333 L0,0" vector-effect="none"/>
   </g>
   <g font-family="Sans Serif" fill="none" font-style="normal" transform="matrix(1,0,0,1,2028.72,491.236)" font-weight="400" stroke-opacity="1" stroke-linejoin="bevel" stroke="#000000" stroke-linecap="square" stroke-width="1" font-size="31.75">
    <text xml:space="preserve" font-family="osifont" fill="#000000" font-style="normal" x="4" font-weight="400" y="93" stroke="none" font-size="67" fill-opacity="1">6</text>
   </g>
   <g font-family="Sans Serif" fill="none" font-style="normal" transform="matrix(1,0,0,1,1509.28,895.194)" font-weight="400" stroke-opacity="1" stroke-linejoin="bevel" stroke="#000000" stroke-linecap="round" stroke-width="3.5" font-size="31.75">
    <path fill-rule="evenodd" d="M480,-293.709 L600,-293.709 M600,-110 L600,-321.709 M480,-110 L480,-321.709" vector-effect="none"/>
   </g>
   <g font-family="Sans Serif" fill="#000000" font-style="normal" transform="matrix(1,0,0,1,2109.28,601.486)" font-weight="400" stroke-opacity="1" stroke-linejoin="bevel" stroke="#000000" stroke-linecap="round" stroke-width="3.5" font-size="31.75" fill-opacity="1">
    <path fill-rule="evenodd" d="M0,0 L-35,-5.83333 L-35,5.83333 L0,0" vector-effect="none"/>
   </g>
   <g font-family="Sans Serif" fill="#000000" font-style="normal" transform="matrix(1,0,0,1,1989.28,601.486)" font-weight="400" stroke-opacity="1" stroke-linejoin="bevel" stroke="#000000" stroke-linecap="round" stroke-width="3.5" font-size="31.75" fill-opacity="1">
    <path fill-rule="evenodd" d="M0,0 L35,5.83333 L35,-5.83333 L0,0" vector-effect="none"/>
   </g>
   <g font-family="Sans Serif" fill="none" font-style="normal" transform="matrix(0,-1,1,0,2187.72,964.708)" font-weight="400" stroke-opacity="1" stroke-linejoin="bevel" stroke="#000000" stroke-linecap="square" stroke-width="1" font-size="31.75">
    <text xml:space="preserve" font-family="osifont" fill="#000000" font-style="normal" x="4" font-weight="400" y="93" stroke="none" font-size="67" fill-opacity="1">11</text>
   </g>
   <g font-family="Sans Serif" fill="none" font-style="normal" transform="matrix(1,0,0,1,1509.28,895.194)" font-weight="400" stroke-opacity="1" stroke-linejoin="bevel" stroke="#000000" stroke-linecap="round" stroke-width="3.5" font-size="31.75">
    <path fill-rule="evenodd" d="M788.688,-110 L788.688,110 M600,110 L816.688,110 M600,-110 L816.688,-110" vector-effect="none"/>
   </g>
   <g font-family="Sans Serif" fill="#000000" font-style="normal" transform="matrix(1,0,0,1,2297.97,1005.19)" font-weight="400" stroke-opacity="1" stroke-linejoin="bevel" stroke="#000000" stroke-linecap="round" stroke-width="3.5" font-size="31.75" fill-opacity="1">
    <path fill-rule="evenodd" d="M0,0 L5.83333,-35 L-5.83333,-35 L0,0" vector-effect="none"/>
   </g>
   <g font-family="Sans Serif" fill="#000000" font-style="normal" transform="matrix(1,0,0,1,2297.97,785.194)" font-weight="400" stroke-opacity="1" stroke-linejoin="bevel" stroke="#000000" stroke-linecap="round" stroke-width="3.5" font-size="31.75" fill-opacity="1">
    <path fill-rule="evenodd" d="M0,0 L-5.83333,35 L5.83333,35 L0,0" vector-effect="none"/>
   </g>
   <g font-family="Sans Serif" fill="none" font-style="normal" transform="matrix(0.673996,-0.738735,0.738735,0.673996,1790.01,868.391)" font-weight="400" stroke-opacity="1" stroke-linejoin="bevel" stroke="#000000" stroke-linecap="square" stroke-width="1" font-size="31.75">
    <text xml:space="preserve" font-family="osifont" fill="#000000" font-style="normal" x="4" font-weight="400" y="93" stroke="none" font-size="67" fill-opacity="1">82,87°</text>
   </g>
   <g font-family="Sans Serif" fill="none" font-style="normal" transform="matrix(1,0,0,1,1509.28,895.194)" font-weight="400" stroke-opacity="1" stroke-linejoin="bevel" stroke="#000000" stroke-linecap="round" stroke-width="3.5" font-size="31.75">
    <path fill-rule="evenodd" d="M487.491,-49.7325 C437.888,-43.5744 399.497,-1.27057 399.497,50 M480,50 L371.497,50 M480,-110 L491.007,-21.9434" vector-effect="none"/>
   </g>
   <g font-family="Sans Serif" fill="#000000" font-style="normal" transform="matrix(1,0,0,1,1908.78,945.194)" font-weight="400" stroke-opacity="1" stroke-linejoin="bevel" stroke="#000000" stroke-linecap="round" stroke-width="3.5" font-size="31.75" fill-opacity="1">
    <path fill-rule="evenodd" d="M0,0 L5.83333,-35 L-5.83333,-35 L0,0" vector-effect="none"/>
   </g>
   <g font-family="Sans Serif" fill="#000000" font-style="normal" transform="matrix(1,0,0,1,1996.82,845.467)" font-weight="400" stroke-opacity="1" stroke-linejoin="bevel" stroke="#000000" stroke-linecap="round" stroke-width="3.5" font-size="31.75" fill-opacity="1">
    <path fill-rule="evenodd" d="M0,0 L-35.4533,-1.44707 L-34.0062,10.1295 L0,0" vector-effect="none"/>
   </g>
  </g>
 </g>
</svg>
